<?xml version="1.0" standalone="no"?><!DOCTYPE svg PUBLIC "-//W3C//DTD SVG 1.1//EN" "http://www.w3.org/Graphics/SVG/1.1/DTD/svg11.dtd"><svg t="1684679731167" class="icon" viewBox="0 0 1024 1024" version="1.1" xmlns="http://www.w3.org/2000/svg" p-id="1341" xmlns:xlink="http://www.w3.org/1999/xlink" width="200" height="200"><path d="M1024 512c0 282.72-229.28 512-512 512S0 794.72 0 512 229.28 0 512 0s512 229.28 512 512" fill="#5A89FF" p-id="1342"></path><path d="M512 665.76c-169.28 0-349.28-53.92-349.28-153.76S342.72 358.24 512 358.24 861.28 412.16 861.28 512 681.28 665.76 512 665.76z m0-260.8c-173.28 0-302.72 56.48-302.72 107.04s129.44 107.04 302.72 107.04S814.72 562.56 814.72 512 685.28 404.96 512 404.96z" fill="#FFFFFF" p-id="1343"></path><path d="M512 861.28c-99.84 0-153.76-180-153.76-349.28S412.16 162.72 512 162.72 665.76 342.72 665.76 512 611.84 861.28 512 861.28z m0-652c-50.56 0-107.04 129.44-107.04 302.72S461.44 814.72 512 814.72s107.04-129.44 107.04-302.72S562.56 209.28 512 209.28z" fill="#FFFFFF" p-id="1344"></path><path d="M512 861.28c-192.64 0-349.28-156.64-349.28-349.28S319.36 162.72 512 162.72 861.28 319.36 861.28 512 704.64 861.28 512 861.28z m0-652c-166.88 0-302.72 135.84-302.72 302.72S345.12 814.72 512 814.72 814.72 678.88 814.72 512 678.88 209.28 512 209.28z" fill="#FFFFFF" p-id="1345"></path></svg>